<?xml version="1.0" encoding="UTF-8" standalone="no"?>
<!DOCTYPE svg PUBLIC "-//W3C//DTD SVG 1.1//EN"
 "http://www.w3.org/Graphics/SVG/1.1/DTD/svg11.dtd">
<!-- Generated by graphviz version 5.0.0 (20220707.1540)
 -->
<!-- Title: dependencies Pages: 1 -->
<svg width="546pt" height="247pt"
 viewBox="0.00 0.00 546.00 246.80" xmlns="http://www.w3.org/2000/svg" xmlns:xlink="http://www.w3.org/1999/xlink">
<g id="graph0" class="graph" transform="scale(1 1) rotate(0) translate(4 242.8)">
<title>dependencies</title>
<polygon fill="white" stroke="transparent" points="-4,4 -4,-242.8 542,-242.8 542,4 -4,4"/>
<text text-anchor="middle" x="269" y="-8.2" font-family="sans-serif" font-size="14.00">dependencies</text>
<g id="clust1" class="cluster">
<title>cluster_SharedModule</title>
<polygon fill="none" stroke="black" stroke-dasharray="1,5" points="8,-32.8 8,-230.8 530,-230.8 530,-32.8 8,-32.8"/>
</g>
<g id="clust6" class="cluster">
<title>cluster_SharedModule_exports</title>
<polygon fill="none" stroke="black" points="16,-170.8 16,-222.8 522,-222.8 522,-170.8 16,-170.8"/>
</g>
<g id="clust2" class="cluster">
<title>cluster_SharedModule_declarations</title>
<polygon fill="none" stroke="black" points="75,-40.8 75,-92.8 323,-92.8 323,-40.8 75,-40.8"/>
</g>
<!-- TableLightComponent -->
<g id="node1" class="node">
<title>TableLightComponent</title>
<polygon fill="#ffffb3" stroke="black" points="314.53,-84.8 171.47,-84.8 171.47,-48.8 314.53,-48.8 314.53,-84.8"/>
<text text-anchor="middle" x="243" y="-62.6" font-family="Times,serif" font-size="14.00">TableLightComponent</text>
</g>
<!-- SharedModule -->
<g id="node3" class="node">
<title>SharedModule</title>
<polygon fill="#8dd3c7" stroke="black" points="259.43,-149.8 256.43,-153.8 235.43,-153.8 232.43,-149.8 160.57,-149.8 160.57,-113.8 259.43,-113.8 259.43,-149.8"/>
<text text-anchor="middle" x="210" y="-127.6" font-family="Times,serif" font-size="14.00">SharedModule</text>
</g>
<!-- TableLightComponent&#45;&gt;SharedModule -->
<g id="edge1" class="edge">
<title>TableLightComponent&#45;&gt;SharedModule</title>
<path fill="none" stroke="black" d="M215.22,-84.91C215.22,-84.91 215.22,-103.79 215.22,-103.79"/>
<polygon fill="black" stroke="black" points="211.72,-103.79 215.22,-113.79 218.72,-103.79 211.72,-103.79"/>
</g>
<!-- TotalPipe -->
<g id="node2" class="node">
<title>TotalPipe</title>
<polygon fill="#ffffb3" stroke="black" points="153.44,-84.8 82.56,-84.8 82.56,-48.8 153.44,-48.8 153.44,-84.8"/>
<text text-anchor="middle" x="118" y="-62.6" font-family="Times,serif" font-size="14.00">TotalPipe</text>
</g>
<!-- TotalPipe&#45;&gt;SharedModule -->
<g id="edge2" class="edge">
<title>TotalPipe&#45;&gt;SharedModule</title>
<path fill="none" stroke="black" d="M153.4,-66.8C160.59,-66.8 166.01,-66.8 166.01,-66.8 166.01,-66.8 166.01,-103.69 166.01,-103.69"/>
<polygon fill="black" stroke="black" points="162.51,-103.69 166.01,-113.69 169.51,-103.69 162.51,-103.69"/>
</g>
<!-- IconsModule  -->
<g id="node4" class="node">
<title>IconsModule </title>
<polygon fill="#fb8072" stroke="black" points="513.88,-214.8 420.12,-214.8 420.12,-178.8 513.88,-178.8 513.88,-214.8"/>
<text text-anchor="middle" x="467" y="-192.6" font-family="Times,serif" font-size="14.00">IconsModule </text>
</g>
<!-- SharedModule&#45;&gt;IconsModule  -->
<g id="edge3" class="edge">
<title>SharedModule&#45;&gt;IconsModule </title>
<path fill="none" stroke="black" stroke-dasharray="5,2" d="M259.25,-131.8C333.87,-131.8 467,-131.8 467,-131.8 467,-131.8 467,-168.69 467,-168.69"/>
<polygon fill="black" stroke="black" points="463.5,-168.69 467,-178.69 470.5,-168.69 463.5,-168.69"/>
</g>
<!-- TableLightComponent  -->
<g id="node5" class="node">
<title>TableLightComponent </title>
<polygon fill="#fb8072" stroke="black" points="402.53,-214.8 255.47,-214.8 255.47,-178.8 402.53,-178.8 402.53,-214.8"/>
<text text-anchor="middle" x="329" y="-192.6" font-family="Times,serif" font-size="14.00">TableLightComponent </text>
</g>
<!-- SharedModule&#45;&gt;TableLightComponent  -->
<g id="edge4" class="edge">
<title>SharedModule&#45;&gt;TableLightComponent </title>
<path fill="none" stroke="black" stroke-dasharray="5,2" d="M246.58,-149.91C246.58,-169.14 246.58,-196.8 246.58,-196.8 246.58,-196.8 247.46,-196.8 247.46,-196.8"/>
<polygon fill="black" stroke="black" points="245.4,-200.3 255.4,-196.8 245.4,-193.3 245.4,-200.3"/>
</g>
<!-- TemplatesModule  -->
<g id="node6" class="node">
<title>TemplatesModule </title>
<polygon fill="#fb8072" stroke="black" points="237.86,-214.8 116.14,-214.8 116.14,-178.8 237.86,-178.8 237.86,-214.8"/>
<text text-anchor="middle" x="177" y="-192.6" font-family="Times,serif" font-size="14.00">TemplatesModule </text>
</g>
<!-- SharedModule&#45;&gt;TemplatesModule  -->
<g id="edge5" class="edge">
<title>SharedModule&#45;&gt;TemplatesModule </title>
<path fill="none" stroke="black" stroke-dasharray="5,2" d="M199.23,-149.91C199.23,-149.91 199.23,-168.79 199.23,-168.79"/>
<polygon fill="black" stroke="black" points="195.73,-168.79 199.23,-178.79 202.73,-168.79 195.73,-168.79"/>
</g>
<!-- TotalPipe  -->
<g id="node7" class="node">
<title>TotalPipe </title>
<polygon fill="#fb8072" stroke="black" points="97.93,-214.8 24.07,-214.8 24.07,-178.8 97.93,-178.8 97.93,-214.8"/>
<text text-anchor="middle" x="61" y="-192.6" font-family="Times,serif" font-size="14.00">TotalPipe </text>
</g>
<!-- SharedModule&#45;&gt;TotalPipe  -->
<g id="edge6" class="edge">
<title>SharedModule&#45;&gt;TotalPipe </title>
<path fill="none" stroke="black" stroke-dasharray="5,2" d="M160.65,-131.8C127.7,-131.8 90.38,-131.8 90.38,-131.8 90.38,-131.8 90.38,-168.69 90.38,-168.69"/>
<polygon fill="black" stroke="black" points="86.88,-168.69 90.38,-178.69 93.88,-168.69 86.88,-168.69"/>
</g>
</g>
</svg>
