<?xml version="1.0" encoding="UTF-8" standalone="no"?>
<!DOCTYPE svg PUBLIC "-//W3C//DTD SVG 1.1//EN"
 "http://www.w3.org/Graphics/SVG/1.1/DTD/svg11.dtd">
<!-- Generated by graphviz version 5.0.0 (20220707.1540)
 -->
<!-- Title: dependencies Pages: 1 -->
<svg width="703pt" height="247pt"
 viewBox="0.00 0.00 703.00 246.80" xmlns="http://www.w3.org/2000/svg" xmlns:xlink="http://www.w3.org/1999/xlink">
<g id="graph0" class="graph" transform="scale(1 1) rotate(0) translate(4 242.8)">
<title>dependencies</title>
<polygon fill="white" stroke="transparent" points="-4,4 -4,-242.8 699,-242.8 699,4 -4,4"/>
<text text-anchor="middle" x="347.5" y="-8.2" font-family="sans-serif" font-size="14.00">dependencies</text>
<g id="clust1" class="cluster">
<title>cluster_AppModule</title>
<polygon fill="none" stroke="black" stroke-dasharray="1,5" points="8,-32.8 8,-230.8 687,-230.8 687,-32.8 8,-32.8"/>
</g>
<g id="clust2" class="cluster">
<title>cluster_AppModule_declarations</title>
<polygon fill="none" stroke="black" points="273,-40.8 273,-92.8 679,-92.8 679,-40.8 273,-40.8"/>
</g>
<g id="clust6" class="cluster">
<title>cluster_AppModule_imports</title>
<polygon fill="none" stroke="black" points="16,-40.8 16,-92.8 265,-92.8 265,-40.8 16,-40.8"/>
</g>
<g id="clust8" class="cluster">
<title>cluster_AppModule_bootstrap</title>
<polygon fill="none" stroke="black" points="272,-170.8 272,-222.8 396,-222.8 396,-170.8 272,-170.8"/>
</g>
<!-- AppComponent -->
<g id="node1" class="node">
<title>AppComponent</title>
<polygon fill="#ffffb3" stroke="black" points="670.94,-84.8 565.06,-84.8 565.06,-48.8 670.94,-48.8 670.94,-84.8"/>
<text text-anchor="middle" x="618" y="-62.6" font-family="Times,serif" font-size="14.00">AppComponent</text>
</g>
<!-- AppModule -->
<g id="node4" class="node">
<title>AppModule</title>
<polygon fill="#8dd3c7" stroke="black" points="375.66,-149.8 372.66,-153.8 351.66,-153.8 348.66,-149.8 292.34,-149.8 292.34,-113.8 375.66,-113.8 375.66,-149.8"/>
<text text-anchor="middle" x="334" y="-127.6" font-family="Times,serif" font-size="14.00">AppModule</text>
</g>
<!-- AppComponent&#45;&gt;AppModule -->
<g id="edge1" class="edge">
<title>AppComponent&#45;&gt;AppModule</title>
<path fill="none" stroke="black" d="M618,-85.08C618,-106.12 618,-137.8 618,-137.8 618,-137.8 385.91,-137.8 385.91,-137.8"/>
<polygon fill="black" stroke="black" points="385.91,-134.3 375.91,-137.8 385.91,-141.3 385.91,-134.3"/>
</g>
<!-- FooterCrmComponent -->
<g id="node2" class="node">
<title>FooterCrmComponent</title>
<polygon fill="#ffffb3" stroke="black" points="547.27,-84.8 404.73,-84.8 404.73,-48.8 547.27,-48.8 547.27,-84.8"/>
<text text-anchor="middle" x="476" y="-62.6" font-family="Times,serif" font-size="14.00">FooterCrmComponent</text>
</g>
<!-- FooterCrmComponent&#45;&gt;AppModule -->
<g id="edge2" class="edge">
<title>FooterCrmComponent&#45;&gt;AppModule</title>
<path fill="none" stroke="black" d="M476,-84.82C476,-102.17 476,-125.8 476,-125.8 476,-125.8 385.84,-125.8 385.84,-125.8"/>
<polygon fill="black" stroke="black" points="385.84,-122.3 375.84,-125.8 385.84,-129.3 385.84,-122.3"/>
</g>
<!-- TestComponent -->
<g id="node3" class="node">
<title>TestComponent</title>
<polygon fill="#ffffb3" stroke="black" points="386.94,-84.8 281.06,-84.8 281.06,-48.8 386.94,-48.8 386.94,-84.8"/>
<text text-anchor="middle" x="334" y="-62.6" font-family="Times,serif" font-size="14.00">TestComponent</text>
</g>
<!-- TestComponent&#45;&gt;AppModule -->
<g id="edge3" class="edge">
<title>TestComponent&#45;&gt;AppModule</title>
<path fill="none" stroke="black" d="M334,-84.91C334,-84.91 334,-103.79 334,-103.79"/>
<polygon fill="black" stroke="black" points="330.5,-103.79 334,-113.79 337.5,-103.79 330.5,-103.79"/>
</g>
<!-- AppComponent  -->
<g id="node7" class="node">
<title>AppComponent </title>
<polygon fill="#80b1d3" stroke="black" points="388.44,-214.8 279.56,-214.8 279.56,-178.8 388.44,-178.8 388.44,-214.8"/>
<text text-anchor="middle" x="334" y="-192.6" font-family="Times,serif" font-size="14.00">AppComponent </text>
</g>
<!-- AppModule&#45;&gt;AppComponent  -->
<g id="edge6" class="edge">
<title>AppModule&#45;&gt;AppComponent </title>
<path fill="none" stroke="black" stroke-dasharray="1,5" d="M334,-149.91C334,-149.91 334,-168.79 334,-168.79"/>
<polygon fill="black" stroke="black" points="330.5,-168.79 334,-178.79 337.5,-168.79 330.5,-168.79"/>
</g>
<!-- AppRoutingModule -->
<g id="node5" class="node">
<title>AppRoutingModule</title>
<polygon fill="#8dd3c7" stroke="black" points="257.28,-84.8 254.28,-88.8 233.28,-88.8 230.28,-84.8 128.72,-84.8 128.72,-48.8 257.28,-48.8 257.28,-84.8"/>
<text text-anchor="middle" x="193" y="-62.6" font-family="Times,serif" font-size="14.00">AppRoutingModule</text>
</g>
<!-- AppRoutingModule&#45;&gt;AppModule -->
<g id="edge4" class="edge">
<title>AppRoutingModule&#45;&gt;AppModule</title>
<path fill="none" stroke="black" d="M193,-84.82C193,-102.17 193,-125.8 193,-125.8 193,-125.8 282.08,-125.8 282.08,-125.8"/>
<polygon fill="black" stroke="black" points="282.08,-129.3 292.08,-125.8 282.08,-122.3 282.08,-129.3"/>
</g>
<!-- CoreModule -->
<g id="node6" class="node">
<title>CoreModule</title>
<polygon fill="#8dd3c7" stroke="black" points="110.27,-84.8 107.27,-88.8 86.27,-88.8 83.27,-84.8 23.73,-84.8 23.73,-48.8 110.27,-48.8 110.27,-84.8"/>
<text text-anchor="middle" x="67" y="-62.6" font-family="Times,serif" font-size="14.00">CoreModule</text>
</g>
<!-- CoreModule&#45;&gt;AppModule -->
<g id="edge5" class="edge">
<title>CoreModule&#45;&gt;AppModule</title>
<path fill="none" stroke="black" d="M67,-85.08C67,-106.12 67,-137.8 67,-137.8 67,-137.8 282.28,-137.8 282.28,-137.8"/>
<polygon fill="black" stroke="black" points="282.28,-141.3 292.28,-137.8 282.28,-134.3 282.28,-141.3"/>
</g>
</g>
</svg>
